<?xml version="1.0" encoding="UTF-8"?>
<svg version="1.1" xmlns="http://www.w3.org/2000/svg" width="512" height="512">
<path d="M0 0 C8.13453985 7.51279158 13.70098696 16.82559907 19.640625 26.078125 C28.16496627 39.39691952 28.16496627 39.39691952 40.765625 48.578125 C47.08057768 49.67637764 51.57948895 48.86831228 57.49609375 46.76171875 C60.38042153 45.84230643 62.64963425 45.57962654 65.640625 46.078125 C67.640625 47.703125 67.640625 47.703125 68.640625 50.078125 C68.390625 53.078125 68.390625 53.078125 66.640625 56.078125 C57.99089146 61.41268829 48.54363054 61.96556338 38.640625 61.078125 C34.88525783 59.92872502 31.87024673 58.29255313 28.640625 56.078125 C28.0425 55.69011719 27.444375 55.30210938 26.828125 54.90234375 C18.50407485 48.67857477 12.95394328 38.19202487 7.47485352 29.53125 C-1.68785116 14.18805637 -1.68785116 14.18805637 -16.359375 5.078125 C-21.95918895 4.24527596 -26.98514652 5.54263115 -32.359375 7.078125 C-32.31296875 7.71878906 -32.2665625 8.35945313 -32.21875 9.01953125 C-31.95521881 15.33486809 -32.55504338 18.96945111 -36.359375 24.078125 C-37.349375 24.408125 -38.339375 24.738125 -39.359375 25.078125 C-39.359375 78.538125 -39.359375 131.998125 -39.359375 187.078125 C2.40537683 186.91984032 2.40537683 186.91984032 44.16992188 186.71777344 C52.25878906 186.69970703 52.25878906 186.69970703 56.0489502 186.6963501 C58.68890656 186.69021853 61.32809019 186.67768072 63.96789551 186.65582275 C67.97288214 186.62310332 71.97730192 186.62250261 75.98242188 186.62402344 C77.73797016 186.60243479 77.73797016 186.60243479 79.52898407 186.58041 C87.26320123 186.61965884 92.55992551 187.69854955 98.6640625 192.75390625 C99.11007812 193.29402344 99.55609375 193.83414063 100.015625 194.390625 C100.70785156 195.18919922 100.70785156 195.18919922 101.4140625 196.00390625 C104.47916865 201.18725455 104.8896036 206.66452955 104.88113403 212.56358337 C104.88369731 213.64448733 104.88369731 213.64448733 104.88631237 214.74722773 C104.88958723 217.14400734 104.87863696 219.54050236 104.86767578 221.93725586 C104.86711123 223.66240431 104.86742908 225.38755324 104.86856079 227.11270142 C104.8691336 231.78366788 104.85739086 236.4545312 104.84341288 241.12547374 C104.8308936 246.01150534 104.82973407 250.89753942 104.82736206 255.78358459 C104.82115082 265.03048329 104.80474479 274.27733458 104.78466308 283.52421242 C104.76229303 294.05379292 104.75130787 304.5833757 104.74127221 315.11297405 C104.72037826 336.7680508 104.68520918 358.42308491 104.640625 380.078125 C105.46477402 380.13975327 106.28892303 380.20138153 107.13804626 380.26487732 C108.21905106 380.34947708 109.30005585 380.43407684 110.41381836 380.52124023 C112.02129189 380.64462013 112.02129189 380.64462013 113.66123962 380.77049255 C126.06055017 382.05076676 137.15632484 389.59541622 145.015625 398.953125 C154.24129807 411.32948806 157.91282614 424.67229202 156.640625 440.078125 C154.23027265 455.39974462 146.49699651 467.07092063 134.4921875 476.7734375 C123.43089215 484.56768359 109.71394334 487.53626517 96.40234375 485.609375 C80.9895107 482.77947779 69.12874808 475.80370228 59.765625 463.140625 C55.88005339 457.25256021 52.640625 451.221703 52.640625 444.078125 C51.95808859 444.0800236 51.27555219 444.0819222 50.57233286 444.08387834 C10.12228707 444.19576168 -30.32773876 444.28155421 -70.77790794 444.33345165 C-75.63449097 444.3397052 -80.49107369 444.34617681 -85.34765625 444.3527832 C-86.31451695 444.35409476 -87.28137766 444.35540631 -88.27753717 444.3567576 C-103.93410846 444.37851587 -119.59058798 444.41793974 -135.24710482 444.46388898 C-151.31139401 444.51064186 -167.37563513 444.53841793 -183.43998957 444.54856747 C-193.35309482 444.55542905 -203.26594069 444.57710287 -213.1789661 444.61770733 C-219.97613169 444.64413126 -226.77316312 444.65212678 -233.57037634 444.64563189 C-237.49246143 444.64242843 -241.41409318 444.64734877 -245.33609772 444.67415237 C-248.92904465 444.69852762 -252.52123445 444.69968577 -256.11421663 444.68261947 C-258.02506901 444.67951454 -259.93591279 444.70104168 -261.84663534 444.72353154 C-268.9140731 444.66205922 -273.9977608 443.92734258 -279.359375 439.078125 C-284.94970758 432.66317078 -285.50838038 427.54986208 -285.51327515 419.12252808 C-285.51984853 417.74978609 -285.51984853 417.74978609 -285.5265547 416.34931195 C-285.53993374 413.27567853 -285.54611958 410.20207379 -285.55224609 407.12841797 C-285.56014778 404.92733124 -285.56841677 402.72624581 -285.57702637 400.52516174 C-285.60323931 393.29022457 -285.61855354 386.05528163 -285.6328125 378.8203125 C-285.63817253 376.32922487 -285.64355003 373.83813727 -285.64894485 371.34704971 C-285.67057272 360.98425522 -285.6894602 350.62146136 -285.70056725 340.25864983 C-285.70349676 337.57087067 -285.70645845 334.88309156 -285.70947266 332.1953125 C-285.71021871 331.52730929 -285.71096476 330.85930607 -285.71173342 330.17106034 C-285.72437987 319.35625774 -285.75759519 308.5416198 -285.79927449 297.72689413 C-285.84174981 286.61418197 -285.86486145 275.50153822 -285.87048781 264.38874352 C-285.87413992 258.15312575 -285.88614696 251.91778721 -285.91859055 245.68224716 C-285.94868809 239.81348673 -285.95497664 233.94517424 -285.94320679 228.07635307 C-285.9429862 225.92615654 -285.95127914 223.77593911 -285.96886063 221.62581444 C-286.14366961 199.01073486 -286.14366961 199.01073486 -277.921875 190.578125 C-271.80099268 186.9951695 -266.39685337 186.83178906 -259.50537109 186.98144531 C-257.48221087 187.00722516 -255.45904788 187.03278886 -253.43588257 187.0581665 C-252.36863323 187.07506783 -251.3013839 187.09196915 -250.20179367 187.10938263 C-244.52151284 187.18959394 -238.8408985 187.20470659 -233.16015625 187.23046875 C-225.94384017 187.26607746 -218.72944598 187.32099097 -211.51416016 187.45166016 C-205.67098673 187.55576717 -199.83088359 187.5908126 -193.98683548 187.58071136 C-191.76922403 187.58933224 -189.55155556 187.62281704 -187.33472824 187.68241119 C-174.51180217 188.40569883 -174.51180217 188.40569883 -163.41217041 183.06140137 C-160.74491979 180.20501234 -158.54343476 177.14342658 -156.47876358 173.8314743 C-154.776784 171.1655862 -152.79392831 168.77896273 -150.796875 166.328125 C-150.19746094 165.54953125 -149.59804687 164.7709375 -148.98046875 163.96875 C-147.359375 162.078125 -147.359375 162.078125 -144.359375 160.078125 C-144.359375 168.988125 -144.359375 177.898125 -144.359375 187.078125 C-116.639375 187.078125 -88.919375 187.078125 -60.359375 187.078125 C-60.42076442 158.07607928 -60.42076442 158.07607928 -60.51953125 129.07421875 C-60.56810791 117.2491879 -60.61253711 105.42424361 -60.63037109 93.59912109 C-60.64337773 84.98734277 -60.67031712 76.37574005 -60.71398807 67.76406062 C-60.73662512 63.20420078 -60.75228434 58.6445577 -60.75125885 54.08463669 C-60.75051356 49.79175919 -60.76841137 45.49936125 -60.80054283 41.20660782 C-60.8090542 39.63206926 -60.81078334 38.057477 -60.80517769 36.48292542 C-60.7985344 34.32996643 -60.81646296 32.17853184 -60.84039307 30.02572632 C-60.84408024 28.82186468 -60.84776741 27.61800304 -60.85156631 26.37766075 C-61.46025978 22.42261645 -63.0225293 20.27791307 -65.359375 17.078125 C-66.35310076 11.87567835 -66.00468159 7.39263842 -63.671875 2.640625 C-57.0129988 -4.73812971 -57.0129988 -4.73812971 -51.93359375 -5.08984375 C-50.98097656 -5.09628906 -50.02835938 -5.10273438 -49.046875 -5.109375 C-48.10199219 -5.12355469 -47.15710938 -5.13773438 -46.18359375 -5.15234375 C-43.359375 -4.921875 -43.359375 -4.921875 -40.8125 -3.796875 C-37.60869616 -2.65411694 -36.44870916 -3.30463817 -33.421875 -4.734375 C-21.20617593 -10.05179695 -10.25628396 -8.35445647 0 0 Z " fill="#E07300" transform="translate(320.359375,16.921875)"/>
<path d="M0 0 C3.13807951 1.08209638 3.96907788 1.94731786 5.6875 4.875 C7.77241555 9.83908464 8.12413371 13.70934168 8.12025452 19.12469482 C8.12153615 20.20175387 8.12153615 20.20175387 8.12284368 21.30057168 C8.1244908 23.7065914 8.11898967 26.11254139 8.11352539 28.51855469 C8.11324333 30.24326068 8.11340163 31.9679668 8.1139679 33.69267273 C8.11425512 38.37618129 8.10837041 43.05966431 8.10139394 47.74316692 C8.09514802 52.63722797 8.09455562 57.53128959 8.09336853 62.425354 C8.09025888 71.69358509 8.0820504 80.9618044 8.07201904 90.2300303 C8.06084657 100.78131128 8.05534459 111.33259281 8.05032361 121.88387823 C8.0398675 143.58925873 8.02227511 165.29462862 8 187 C8.82414902 187.06162827 9.64829803 187.12325653 10.49742126 187.18675232 C12.11892845 187.31365196 12.11892845 187.31365196 13.77319336 187.44311523 C14.84484238 187.5253685 15.91649139 187.60762177 17.02061462 187.69236755 C29.41992517 188.97264176 40.51569984 196.51729122 48.375 205.875 C57.60067307 218.25136306 61.27220114 231.59416702 60 247 C57.58964765 262.32161962 49.85637151 273.99279563 37.8515625 283.6953125 C26.79026715 291.48955859 13.07331834 294.45814017 -0.23828125 292.53125 C-15.6511143 289.70135279 -27.51187692 282.72557728 -36.875 270.0625 C-44.85177276 257.92802256 -46.34293052 244.23572995 -45 230 C-44.03861558 225.80818169 -42.68115733 221.95133329 -41 218 C-40.33253976 216.33365098 -39.66563263 214.66707991 -39 213 C-39.84820312 212.34515625 -40.69640625 211.6903125 -41.5703125 211.015625 C-47.83900011 206.14800351 -54.00720527 201.20476179 -60 196 C-64.57003357 192.03172372 -69.21501898 188.20628974 -74 184.5 C-79.48602938 180.25009642 -84.77855144 175.81784129 -90.0246582 171.27612305 C-94.14095761 167.71772953 -98.33416135 164.2789767 -102.6015625 160.90234375 C-110.73676215 154.44983198 -118.70437011 147.78080353 -126.71411133 141.17358398 C-129.9200707 138.53006101 -133.12801365 135.88978723 -136.359375 133.27734375 C-137.79023438 132.11912109 -137.79023438 132.11912109 -139.25 130.9375 C-140.05953125 130.28652344 -140.8690625 129.63554687 -141.703125 128.96484375 C-144.27279736 126.76663763 -146.63702932 124.41743632 -149 122 C-147.72769531 121.01773438 -147.72769531 121.01773438 -146.4296875 120.015625 C-140.16099989 115.14800351 -133.99279473 110.20476179 -128 105 C-123.42996643 101.03172372 -118.78498102 97.20628974 -114 93.5 C-108.51397062 89.25009642 -103.22144856 84.81784129 -97.9753418 80.27612305 C-93.85904239 76.71772953 -89.66583865 73.2789767 -85.3984375 69.90234375 C-77.25898089 63.44645552 -69.29030544 56.77098827 -61.27270508 50.16479492 C-55.52566053 45.43023628 -49.76653087 40.71081214 -44 36 C-42.16654964 34.50014304 -40.33321829 33.0001406 -38.5 31.5 C-35.8210008 29.30774854 -33.14175792 27.11580532 -30.4609375 24.92578125 C-23.93448812 19.59223274 -17.42626774 14.23688131 -10.92529297 8.87231445 C-7.30493177 5.88725904 -3.67474529 2.91818008 0 0 Z " fill="#FC9F2E" transform="translate(417,210)"/>
<path d="M0 0 C4.88894454 2.15723212 8.83932569 5.64478461 13.02734375 8.90625 C18.06199028 12.45233481 21.83236882 13.53169234 28 13 C33.91044567 11.21571451 37.91339919 7.83467194 42.5703125 3.83984375 C44.98747908 2.00948127 47.14582371 0.98017086 50 0 C50.88300781 0.76183594 51.76601563 1.52367187 52.67578125 2.30859375 C60.03444175 8.64473132 67.45714815 14.88327081 75 21 C76.83403254 22.499145 78.66735981 23.99915322 80.5 25.5 C81.86125 26.61375 81.86125 26.61375 83.25 27.75 C102.5 43.5 102.5 43.5 105.2734375 45.76953125 C107.02817784 47.20499935 108.78335155 48.63993796 110.5390625 50.07421875 C116.9483885 55.31205163 123.33943196 60.57177219 129.72753906 65.83544922 C134.62820831 69.87264638 139.5352664 73.90171756 144.453125 77.91796875 C146.23672593 79.37603516 148.01776441 80.83723916 149.796875 82.30078125 C150.73015625 83.06777344 151.6634375 83.83476562 152.625 84.625 C153.5221875 85.38425781 154.419375 86.14351563 155.34375 86.92578125 C157.90001895 89.04434727 157.90001895 89.04434727 160.65625 90.41796875 C163.125 91.8125 163.125 91.8125 167 96 C167.33 102.6 167.66 109.2 168 116 C66.36 116 -35.28 116 -140 116 C-136.26449358 112.26449358 -132.56336807 108.78949507 -128.5625 105.375 C-127.64887695 104.59286133 -127.64887695 104.59286133 -126.71679688 103.79492188 C-121.99647187 99.78288818 -117.15728033 95.94630495 -112.26098633 92.15258789 C-107.36338357 88.33740398 -102.65557765 84.32725504 -97.9621582 80.26513672 C-93.98779257 76.8301692 -89.9418534 73.51169188 -85.8203125 70.25390625 C-82.03536086 67.22909033 -78.2996475 64.14606383 -74.5625 61.0625 C-73.82330322 60.45269287 -73.08410645 59.84288574 -72.32250977 59.21459961 C-70.87496907 58.02038255 -69.42745843 56.82612904 -67.97998047 55.63183594 C-63.66404821 52.074784 -59.33128615 48.53832761 -55 45 C-53.16654964 43.50014304 -51.33321829 42.0001406 -49.5 40.5 C-46.8210008 38.30774854 -44.14175792 36.11580532 -41.4609375 33.92578125 C-35.79659198 29.29676173 -30.14561159 24.6518403 -24.5 20 C-7.145642 5.7013101 -7.145642 5.7013101 0 0 Z " fill="#E58106" transform="translate(205,345)"/>
<path d="M0 0 C7.31200201 5.30478577 14.13817243 11.13625644 21 17 C27.77419324 22.77523387 34.56775108 28.51012243 41.54296875 34.04296875 C46.06785483 37.64705131 50.52768702 41.33105866 55 45 C56.70822358 46.39596765 58.41655857 47.79179898 60.125 49.1875 C65.67004882 53.72363593 71.19859573 58.27970657 76.72753906 62.83544922 C82.47455062 67.56986763 88.23355779 72.28926029 94 77 C96.75804664 79.2562244 99.51573997 81.51288017 102.2734375 83.76953125 C104.02817784 85.20499935 105.78335155 86.63993796 107.5390625 88.07421875 C113.94475667 93.30908362 120.3324372 98.56551328 126.71655273 103.82666016 C130.86722697 107.24639513 135.0231478 110.65943456 139.1875 114.0625 C140.033125 114.75601563 140.87875 115.44953125 141.75 116.1640625 C143.1591848 117.31391815 144.57489467 118.45587351 146 119.5859375 C147.36821368 120.68177531 148.69177386 121.83320372 150 123 C150 123.66 150 124.32 150 125 C148.41015625 126.453125 148.41015625 126.453125 146.0625 128.25 C141.16378505 132.07016265 136.35055237 135.97944014 131.5625 139.9375 C130.08214044 141.15898651 128.60167327 142.38034261 127.12109375 143.6015625 C126.41452637 144.18454102 125.70795898 144.76751953 124.97998047 145.36816406 C120.66404821 148.925216 116.33128615 152.46167239 112 156 C110.16654964 157.49985696 108.33321829 158.9998594 106.5 160.5 C103.8210008 162.69225146 101.14175792 164.88419468 98.4609375 167.07421875 C92.7965921 171.70323818 87.14559447 176.34813906 81.5 181 C75.01094999 186.34685204 68.51155167 191.68056318 62 197 C60.16654964 198.49985696 58.33321829 199.9998594 56.5 201.5 C53.8210008 203.69225146 51.14175792 205.88419468 48.4609375 208.07421875 C46.188006 209.93170507 43.91636535 211.79075013 41.64599609 213.65136719 C40.45916277 214.62378892 39.27194032 215.5957358 38.08447266 216.56738281 C29.32126724 223.74123411 20.62176364 230.97615599 12.05078125 238.37890625 C9.9632283 240.18170173 7.85534822 241.95621202 5.73046875 243.71484375 C3.05810659 245.8829353 3.05810659 245.8829353 1 248 C0.01287122 246.75627811 -0.96439905 245.50472782 -1.9375 244.25 C-2.48277344 243.55390625 -3.02804688 242.8578125 -3.58984375 242.140625 C-6.63733193 237.51452106 -6.15078245 232.4121519 -6.15390015 227.04440308 C-6.1582824 226.12924175 -6.16266465 225.21408043 -6.1671797 224.27118695 C-6.18055874 221.19755353 -6.18674458 218.12394879 -6.19287109 215.05029297 C-6.20077278 212.84920624 -6.20904177 210.64812081 -6.21765137 208.44703674 C-6.24386431 201.21209957 -6.25917854 193.97715663 -6.2734375 186.7421875 C-6.27879753 184.25109987 -6.28417503 181.76001227 -6.28956985 179.26892471 C-6.31119772 168.90613022 -6.3300852 158.54333636 -6.34119225 148.18052483 C-6.34412176 145.49274567 -6.34708345 142.80496656 -6.35009766 140.1171875 C-6.35084371 139.44918429 -6.35158976 138.78118107 -6.35235842 138.09293534 C-6.36500487 127.27813274 -6.39822019 116.4634948 -6.43989949 105.64876913 C-6.48237481 94.53605697 -6.50548645 83.42341322 -6.51111281 72.31061852 C-6.51476492 66.07500075 -6.52677196 59.83966221 -6.55921555 53.60412216 C-6.58931309 47.73536173 -6.59560164 41.86704924 -6.58383179 35.99822807 C-6.5836112 33.84803154 -6.59190414 31.69781411 -6.60948563 29.54768944 C-6.77218036 8.49983361 -6.77218036 8.49983361 -1 1 C-0.67 0.67 -0.34 0.34 0 0 Z " fill="#FC9F2E" transform="translate(41,209)"/>
<path d="M0 0 C10.44744607 10.911777 15.99211574 23.88439527 16.375 39 C15.93881077 56.21999215 9.1310766 67.8689234 -2.78515625 79.78515625 C-11.94526841 88.25230484 -24.18612565 91.84759011 -36.5 92.375 C-52.44194874 91.66515442 -66.13825177 85.65237808 -77 74 C-88.0334499 60.72174072 -90.42621269 45.80381325 -89 29 C-86.36704881 15.26424256 -77.73014412 3.52938992 -66.66015625 -4.75 C-45.55765098 -18.43071655 -18.77942944 -16.72863372 0 0 Z " fill="#FA545C" transform="translate(461,411)"/>
<path d="M0 0 C1.8312691 1.3380333 3.63797207 2.69327978 5.42151356 4.0949173 C7.96748337 6.05769271 7.96748337 6.05769271 10.81453228 7.58544159 C14.70575675 10.05884583 18.18680427 12.43505156 19.63823724 17.01310158 C20.70793523 23.22181364 20.48626916 29.52190333 20.4074707 35.79882812 C20.42074985 37.92349029 20.43872034 40.04812753 20.46101379 42.17271423 C20.50679777 47.92747798 20.48338312 53.68003372 20.44464898 59.4347744 C20.41301646 65.46441328 20.43598424 71.4938887 20.45048523 77.52355957 C20.46591109 87.64838138 20.43570733 97.77231425 20.37915039 107.89697266 C20.31444557 119.59291571 20.32503897 131.28698284 20.37532359 142.9829545 C20.4217389 154.24654955 20.41169459 165.50944181 20.37709618 176.77305603 C20.36355944 181.56094005 20.37027921 186.3481588 20.39351845 191.13600159 C20.41856496 196.77738554 20.39426086 202.41647971 20.332304 208.05755806 C20.31751874 210.12425765 20.31962192 212.19115953 20.34009552 214.25781059 C20.4790861 229.85565289 20.4790861 229.85565289 16.80971336 235.1754303 C14.31354595 237.45500257 11.87421398 239.23558943 9 241 C7.81654249 241.95880488 6.6465718 242.93487765 5.5 243.9375 C4.675 244.618125 3.85 245.29875 3 246 C2.01 246.99 2.01 246.99 1 248 C0.01287122 246.75627811 -0.96439905 245.50472782 -1.9375 244.25 C-2.48277344 243.55390625 -3.02804688 242.8578125 -3.58984375 242.140625 C-6.63733193 237.51452106 -6.15078245 232.4121519 -6.15390015 227.04440308 C-6.1582824 226.12924175 -6.16266465 225.21408043 -6.1671797 224.27118695 C-6.18055874 221.19755353 -6.18674458 218.12394879 -6.19287109 215.05029297 C-6.20077278 212.84920624 -6.20904177 210.64812081 -6.21765137 208.44703674 C-6.24386431 201.21209957 -6.25917854 193.97715663 -6.2734375 186.7421875 C-6.27879753 184.25109987 -6.28417503 181.76001227 -6.28956985 179.26892471 C-6.31119772 168.90613022 -6.3300852 158.54333636 -6.34119225 148.18052483 C-6.34412176 145.49274567 -6.34708345 142.80496656 -6.35009766 140.1171875 C-6.35084371 139.44918429 -6.35158976 138.78118107 -6.35235842 138.09293534 C-6.36500487 127.27813274 -6.39822019 116.4634948 -6.43989949 105.64876913 C-6.48237481 94.53605697 -6.50548645 83.42341322 -6.51111281 72.31061852 C-6.51476492 66.07500075 -6.52677196 59.83966221 -6.55921555 53.60412216 C-6.58931309 47.73536173 -6.59560164 41.86704924 -6.58383179 35.99822807 C-6.5836112 33.84803154 -6.59190414 31.69781411 -6.60948563 29.54768944 C-6.77218036 8.49983361 -6.77218036 8.49983361 -1 1 C-0.67 0.67 -0.34 0.34 0 0 Z " fill="#F79318" transform="translate(41,209)"/>
<path d="M0 0 C8.13453985 7.51279158 13.70098696 16.82559907 19.640625 26.078125 C28.16496627 39.39691952 28.16496627 39.39691952 40.765625 48.578125 C47.08057768 49.67637764 51.57948895 48.86831228 57.49609375 46.76171875 C60.38042153 45.84230643 62.64963425 45.57962654 65.640625 46.078125 C67.640625 47.703125 67.640625 47.703125 68.640625 50.078125 C68.390625 53.078125 68.390625 53.078125 66.640625 56.078125 C57.99089146 61.41268829 48.54363054 61.96556338 38.640625 61.078125 C34.88525783 59.92872502 31.87024673 58.29255313 28.640625 56.078125 C28.0425 55.69011719 27.444375 55.30210938 26.828125 54.90234375 C18.50407485 48.67857477 12.95394328 38.19202487 7.47485352 29.53125 C-1.68785116 14.18805637 -1.68785116 14.18805637 -16.359375 5.078125 C-21.95918895 4.24527596 -26.98514652 5.54263115 -32.359375 7.078125 C-32.31296875 7.71878906 -32.2665625 8.35945313 -32.21875 9.01953125 C-31.95521881 15.33486809 -32.55504338 18.96945111 -36.359375 24.078125 C-37.844375 24.573125 -37.844375 24.573125 -39.359375 25.078125 C-39.359375 78.538125 -39.359375 131.998125 -39.359375 187.078125 C-46.289375 187.078125 -53.219375 187.078125 -60.359375 187.078125 C-60.36302063 185.03684418 -60.36666626 182.99556335 -60.37042236 180.89242554 C-60.40663707 161.67491104 -60.46481881 142.45755297 -60.54327774 123.2401638 C-60.58308718 113.35981346 -60.61547 103.47954299 -60.63037109 93.59912109 C-60.64337773 84.98734277 -60.67031712 76.37574005 -60.71398807 67.76406062 C-60.73662512 63.20420078 -60.75228434 58.6445577 -60.75125885 54.08463669 C-60.75051356 49.79175919 -60.76841137 45.49936125 -60.80054283 41.20660782 C-60.8090542 39.63206926 -60.81078334 38.057477 -60.80517769 36.48292542 C-60.7985344 34.32996643 -60.81646296 32.17853184 -60.84039307 30.02572632 C-60.84408024 28.82186468 -60.84776741 27.61800304 -60.85156631 26.37766075 C-61.46025978 22.42261645 -63.0225293 20.27791307 -65.359375 17.078125 C-66.35310076 11.87567835 -66.00468159 7.39263842 -63.671875 2.640625 C-57.0129988 -4.73812971 -57.0129988 -4.73812971 -51.93359375 -5.08984375 C-50.98097656 -5.09628906 -50.02835937 -5.10273438 -49.046875 -5.109375 C-48.10199219 -5.12355469 -47.15710938 -5.13773438 -46.18359375 -5.15234375 C-43.359375 -4.921875 -43.359375 -4.921875 -40.8125 -3.796875 C-37.60869616 -2.65411694 -36.44870916 -3.30463817 -33.421875 -4.734375 C-21.20617593 -10.05179695 -10.25628396 -8.35445647 0 0 Z " fill="#3D4A74" transform="translate(320.359375,16.921875)"/>
<path d="M0 0 C0.33 0 0.66 0 1 0 C0.98667633 0.89630379 0.98667633 0.89630379 0.9730835 1.81071472 C0.88385769 8.08977589 0.82395719 14.36865392 0.78027344 20.64819336 C0.76028959 22.98453093 0.73309312 25.32081933 0.69824219 27.65698242 C0.2698569 52.10624117 0.2698569 52.10624117 12 73 C20.5135382 81.22869863 28.88662713 84.32112542 40.5625 84.4375 C41.74948486 84.4528479 41.74948486 84.4528479 42.96044922 84.46850586 C49.1817718 84.37631424 52.72083572 83.09305476 59 81 C63.62 85.62 68.24 90.24 73 95 C69.3540689 98.6459311 67.63310062 99.86041249 63.0625 101.6875 C62.04285156 102.10386719 61.02320313 102.52023437 59.97265625 102.94921875 C47.06861426 107.51056868 29.46650511 106.96402585 16.96484375 101.5390625 C1.04189447 93.2733945 -10.89440023 81.74266694 -16.9375 64.5625 C-19.06165866 57.78740572 -19.43596642 52.06265601 -19 45 C-24.61 45 -30.22 45 -36 45 C-31.7345707 39.27808265 -27.39723639 33.62103538 -23 28 C-22.1652442 26.9245726 -21.33061706 25.84904532 -20.49609375 24.7734375 C-5.49019729 5.49019729 -5.49019729 5.49019729 0 0 Z " fill="#3E4A73" transform="translate(175,177)"/>
<path d="M0 0 C-2.42464734 2.42464734 -4.15682755 2.74467996 -7.4375 3.6875 C-20.9496188 8.09995028 -30.85168266 16.51013731 -37.4375 29.125 C-43.30121835 41.18655171 -44.37934322 56.77773218 -40.375 69.625 C-33.8871634 85.89060452 -23.81759366 95.032469 -8 102 C-5.659757 102.82596812 -3.42270415 103.44938542 -1 104 C-1.33 104.66 -1.66 105.32 -2 106 C-16.93288007 106.77239035 -30.89894891 102.4936952 -42.3125 92.75 C-53.82932056 81.71381721 -58.87577174 69.63871473 -59.29272461 53.86181641 C-59.43690659 38.4646046 -54.34782048 26.45052411 -43.6875 15.1875 C-31.54507505 3.72079178 -16.38940443 -0.34871073 0 0 Z " fill="#F04149" transform="translate(431,397)"/>
<path d="M0 0 C8.13453985 7.51279158 13.70098696 16.82559907 19.640625 26.078125 C28.16496627 39.39691952 28.16496627 39.39691952 40.765625 48.578125 C47.08057768 49.67637764 51.57948895 48.86831228 57.49609375 46.76171875 C60.38042153 45.84230643 62.64963425 45.57962654 65.640625 46.078125 C67.640625 47.703125 67.640625 47.703125 68.640625 50.078125 C68.390625 53.078125 68.390625 53.078125 66.640625 56.078125 C57.99089146 61.41268829 48.54363054 61.96556338 38.640625 61.078125 C34.88525783 59.92872502 31.87024673 58.29255313 28.640625 56.078125 C28.0425 55.69011719 27.444375 55.30210938 26.828125 54.90234375 C18.50407485 48.67857477 12.95394328 38.19202487 7.47485352 29.53125 C-1.688583 14.18963933 -1.688583 14.18963933 -16.359375 5.078125 C-22.33964515 4.50857546 -27.57386694 5.57817847 -33.359375 7.078125 C-34.19815955 5.78999158 -35.03024283 4.49749244 -35.859375 3.203125 C-36.3234375 2.48382813 -36.7875 1.76453125 -37.265625 1.0234375 C-38.359375 -0.921875 -38.359375 -0.921875 -38.359375 -2.921875 C-24.24483042 -8.91916173 -12.42807947 -10.12353494 0 0 Z " fill="#3C4A74" transform="translate(320.359375,16.921875)"/>
<path d="M0 0 C5.44517003 2.42007557 8.79409647 6.52748189 11 12 C12.00279621 17.57205896 11.59784699 22.76135341 8.38671875 27.52734375 C4.64321226 31.50284219 -0.06507945 33.20234454 -5.4375 33.625 C-11.937983 33.32081795 -16.74308378 29.39369902 -21.0625 24.8125 C-23.01890579 18.94328262 -23.04412863 13.12692869 -20.3125 7.5625 C-13.97561609 0.54054756 -9.27389844 -0.90637251 0 0 Z " fill="#F9535B" transform="translate(277,12)"/>
<path d="M0 0 C4.78747747 0.73561093 6.92602507 3.26268219 10.23779297 6.64111328 C10.87298859 7.27056854 11.5081842 7.9000238 12.16262817 8.54855347 C13.49943313 9.88128174 14.82871577 11.22159238 16.15087891 12.56884766 C18.17635231 14.62644054 20.23181926 16.65008115 22.29248047 18.67236328 C23.58867944 19.9725272 24.88301588 21.27455119 26.17529297 22.57861328 C26.79081024 23.18198517 27.40632751 23.78535706 28.04049683 24.40701294 C30.82606201 27.28644831 32.18302001 28.78336154 32.87890625 32.81640625 C32.30810547 35.50830078 32.30810547 35.50830078 29.30810547 37.50830078 C25.62758474 37.41144497 24.41408087 36.60670651 21.68310547 34.07080078 C20.89935547 33.22517578 20.11560547 32.37955078 19.30810547 31.50830078 C18.31810547 30.84830078 17.32810547 30.18830078 16.30810547 29.50830078 C15.37775717 28.48700332 14.48152471 27.43406141 13.61279297 26.35986328 C11.34776076 23.65499179 8.98921628 21.15931256 6.44091797 18.71923828 C5.78349609 18.08759766 5.12607422 17.45595703 4.44873047 16.80517578 C3.08878086 15.50847965 1.7213814 14.21955811 0.34716797 12.93798828 C-0.30251953 12.30892578 -0.95220703 11.67986328 -1.62158203 11.03173828 C-2.21181152 10.47405762 -2.80204102 9.91637695 -3.41015625 9.34179688 C-5.10721643 6.9141927 -5.07414298 5.40903055 -4.69189453 2.50830078 C-2.69189453 0.50830078 -2.69189453 0.50830078 0 0 Z " fill="#C45B00" transform="translate(230.69189453125,243.49169921875)"/>
<path d="M0 0 C3 0.25 3 0.25 5 2.25 C5.25396729 4.0715332 5.25396729 4.0715332 5.25878906 6.30078125 C5.26509338 7.13504639 5.27139771 7.96931152 5.27789307 8.82885742 C5.2738446 9.73095947 5.26979614 10.63306152 5.265625 11.5625 C5.26753845 12.48716064 5.2694519 13.41182129 5.27142334 14.36450195 C5.27278566 16.32145459 5.26908596 18.27841624 5.26074219 20.23535156 C5.25004334 23.2378359 5.26063591 26.23972187 5.2734375 29.2421875 C5.27211591 31.14062633 5.26955354 33.03906478 5.265625 34.9375 C5.26967346 35.83960205 5.27372192 36.7417041 5.27789307 37.67114258 C5.27158875 38.50540771 5.26528442 39.33967285 5.25878906 40.19921875 C5.25640228 41.30269653 5.25640228 41.30269653 5.25396729 42.4284668 C5 44.25 5 44.25 3 46.25 C0 46.5 0 46.5 -3 46.25 C-5.37046531 43.87953469 -5.25183138 43.41595828 -5.25878906 40.19921875 C-5.26509338 39.36495361 -5.27139771 38.53068848 -5.27789307 37.67114258 C-5.2738446 36.76904053 -5.26979614 35.86693848 -5.265625 34.9375 C-5.26753845 34.01283936 -5.2694519 33.08817871 -5.27142334 32.13549805 C-5.27278566 30.17854541 -5.26908596 28.22158376 -5.26074219 26.26464844 C-5.25004334 23.2621641 -5.26063591 20.26027813 -5.2734375 17.2578125 C-5.27211591 15.35937367 -5.26955354 13.46093522 -5.265625 11.5625 C-5.26967346 10.66039795 -5.27372192 9.7582959 -5.27789307 8.82885742 C-5.27158875 7.99459229 -5.26528442 7.16032715 -5.25878906 6.30078125 C-5.25719788 5.56512939 -5.25560669 4.82947754 -5.25396729 4.0715332 C-4.774142 0.6300754 -3.24221915 0.27018493 0 0 Z " fill="#E9E6FC" transform="translate(424,416.75)"/>
<path d="M0 0 C0.99 0.33 1.98 0.66 3 1 C3.80859375 2.92578125 3.80859375 2.92578125 4.4375 5.3125 C5.59171336 9.16806376 6.76808108 11.43675396 10 14 C8.125 17.875 8.125 17.875 7 19 C4.42291444 19.15456568 1.89107479 19.23172843 -0.6875 19.25 C-1.75000977 19.2809375 -1.75000977 19.2809375 -2.83398438 19.3125 C-7.63886994 19.34799315 -10.77773496 18.52670979 -15 16 C-14.51262244 11.8047304 -12.28936359 10.12154302 -9.1875 7.4375 C-7.87845703 6.29087891 -7.87845703 6.29087891 -6.54296875 5.12109375 C-5.70378906 4.42113281 -4.86460938 3.72117187 -4 3 C-2.94232422 2.08927734 -2.94232422 2.08927734 -1.86328125 1.16015625 C-1.24839844 0.77730469 -0.63351563 0.39445312 0 0 Z " fill="#C55D01" transform="translate(58,442)"/>
<path d="M0 0 C1.20366211 0.00483398 1.20366211 0.00483398 2.43164062 0.00976562 C3.68170898 0.02233398 3.68170898 0.02233398 4.95703125 0.03515625 C6.22450195 0.04192383 6.22450195 0.04192383 7.51757812 0.04882812 C9.6015928 0.06060222 11.68557102 0.07853735 13.76953125 0.09765625 C14.42953125 1.41765625 15.08953125 2.73765625 15.76953125 4.09765625 C15.00640625 4.90203125 14.24328125 5.70640625 13.45703125 6.53515625 C10.28709152 10.29045417 9.04897252 14.41677355 7.76953125 19.09765625 C3.38038427 16.27700324 -0.63134365 13.22320942 -4.60546875 9.84765625 C-5.15074219 9.38875 -5.69601563 8.92984375 -6.2578125 8.45703125 C-7.58433011 7.33996379 -8.90773294 6.21919923 -10.23046875 5.09765625 C-7.33084161 0.81725428 -5.08503919 -0.03606411 0 0 Z " fill="#C55D00" transform="translate(52.23046875,204.90234375)"/>
<path d="M0 0 C3 0.25 3 0.25 5 2.25 C5.25 5.25 5.25 5.25 5 8.25 C3 10.25 3 10.25 0 10.5625 C-0.99 10.459375 -1.98 10.35625 -3 10.25 C-5.14915785 7.02626323 -5.38286803 5.98296326 -5 2.25 C-3 0.25 -3 0.25 0 0 Z " fill="#E9E1F7" transform="translate(424,472.75)"/>
</svg>
